<?xml version="1.0" encoding="utf-8"?>
<!-- Generator: Adobe Illustrator 19.0.0, SVG Export Plug-In . SVG Version: 6.00 Build 0)  -->
<svg version="1.1" id="Слой_1" xmlns="http://www.w3.org/2000/svg" xmlns:xlink="http://www.w3.org/1999/xlink" x="0px" y="0px"
	 viewBox="0 0 40 40" style="enable-background:new 0 0 40 40;" xml:space="preserve">
<style type="text/css">
	.st0{fill:#004FE1;}
	.st1{fill:none;stroke:#004FE1;stroke-miterlimit:10;}
	.st2{fill:#E2E2E2;}
</style>
<g id="XMLID_26_">
	<g id="XMLID_22_">
		<g id="XMLID_1_">
			<path id="XMLID_19_" class="st0" d="M26.9,14.9c0.4,0,0.7,0.3,0.7,0.7v8.8c0,0.4-0.3,0.7-0.7,0.7H13.1c-0.4,0-0.7-0.3-0.7-0.7
				v-8.8c0-0.4,0.3-0.7,0.7-0.7H26.9 M26.9,13.9H13.1c-1,0-1.7,0.8-1.7,1.7v8.8c0,1,0.8,1.7,1.7,1.7h13.8c1,0,1.7-0.8,1.7-1.7v-8.8
				C28.6,14.7,27.9,13.9,26.9,13.9L26.9,13.9z"/>
		</g>
		<polyline id="XMLID_14_" class="st1" points="12.1,14.8 20,21.7 27.9,14.8 		"/>
	</g>
	<g id="XMLID_36_">
		<path id="XMLID_15_" class="st2" d="M20,3c9.4,0,17,7.6,17,17s-7.6,17-17,17S3,29.4,3,20S10.6,3,20,3 M20,2C10.1,2,2,10.1,2,20
			s8.1,18,18,18s18-8.1,18-18S29.9,2,20,2L20,2z"/>
	</g>
</g>
</svg>
