<?xml version="1.0" encoding="utf-8"?>
<!-- Generator: Adobe Illustrator 19.0.0, SVG Export Plug-In . SVG Version: 6.00 Build 0)  -->
<svg version="1.1" id="Слой_1" xmlns="http://www.w3.org/2000/svg" xmlns:xlink="http://www.w3.org/1999/xlink" x="0px" y="0px"
	 viewBox="0 0 40 40" style="enable-background:new 0 0 40 40;" xml:space="preserve">
<style type="text/css">
	.st0{fill:none;stroke:#004FE1;stroke-miterlimit:10;}
	.st1{fill:none;stroke:#004FE1;stroke-linecap:round;stroke-miterlimit:10;}
	.st2{fill:#E2E2E2;}
</style>
<g id="XMLID_45_">
	<path id="XMLID_4_" class="st0" d="M17.3,11.7c0,0,2.9,0,3.4,3.6c0.4,3.1-1.8,3.6-1.7,5.3c0,0.5,2.5,1.9,3.8,2.6
		c0.5,0.3,0.9,0.7,1.1,1.3l0.1,0.4h-6.7c0,0-6.7,0-6.7,0l0.1-0.4c0.2-0.5,0.6-1,1.1-1.3c1.3-0.7,3.7-2.1,3.8-2.6
		c0.1-1.7-2.1-2.2-1.7-5.3C14.4,11.7,17.3,11.7,17.3,11.7z"/>
	<line id="XMLID_3_" class="st1" x1="27.9" y1="13.7" x2="27.9" y2="19.9"/>
	<line id="XMLID_2_" class="st1" x1="31" y1="16.8" x2="24.8" y2="16.8"/>
</g>
<g id="XMLID_27_">
	<path id="XMLID_29_" class="st2" d="M20,3c9.4,0,17,7.6,17,17s-7.6,17-17,17S3,29.4,3,20S10.6,3,20,3 M20,2C10.1,2,2,10.1,2,20
		s8.1,18,18,18s18-8.1,18-18S29.9,2,20,2L20,2z"/>
</g>
</svg>
