<?xml version="1.0" encoding="utf-8"?>
<!-- Generator: Adobe Illustrator 19.0.0, SVG Export Plug-In . SVG Version: 6.00 Build 0)  -->
<svg version="1.1" id="Слой_1" xmlns="http://www.w3.org/2000/svg" xmlns:xlink="http://www.w3.org/1999/xlink" x="0px" y="0px"
	 viewBox="0 0 40 40" style="enable-background:new 0 0 40 40;" xml:space="preserve">
<style type="text/css">
	.st0{fill:#004FE1;}
	.st1{fill:#E2E2E2;}
</style>
<g id="XMLID_18_">
	<path id="XMLID_20_" class="st0" d="M19.5,23.1v0.9h-3.3c0,0-0.1,0-0.2,0c-0.4,0-0.8-0.1-1.1-0.2s-0.7-0.3-1-0.6s-0.5-0.6-0.7-1.1
		s-0.3-1.1-0.3-1.7V17c0-0.7,0.1-1.2,0.3-1.7c0.2-0.5,0.4-0.9,0.7-1.1c0.3-0.3,0.6-0.5,1-0.6s0.7-0.2,1.1-0.2c0.4,0,0.8,0.1,1.1,0.2
		c0.3,0.1,0.7,0.3,1,0.6s0.5,0.6,0.7,1.1c0.2,0.5,0.3,1.1,0.3,1.7v3.5c0,1.2-0.3,2.1-0.8,2.7H19.5z M13.9,17.1v3.2
		c0,1,0.2,1.7,0.6,2.2s0.9,0.7,1.5,0.7h0h0.1c0.6,0,1.1-0.3,1.4-0.7s0.5-1.1,0.5-2.1v-3.2c0-1-0.2-1.7-0.6-2.2s-0.9-0.7-1.5-0.7
		c-0.6,0-1.1,0.2-1.5,0.7S13.9,16.1,13.9,17.1z"/>
	<path id="XMLID_24_" class="st0" d="M21.3,13.5h2.4c0.4,0,0.8,0,1.1,0.1c0.4,0.1,0.7,0.2,1,0.4c0.3,0.2,0.6,0.5,0.7,0.8
		c0.2,0.4,0.3,0.8,0.3,1.3v0.4c0,0.7-0.2,1.2-0.5,1.6C26,18.6,25.6,18.9,25,19l2,4.9h-1l-1.9-4.6h-1.8V24h-1V13.5z M26,16.5v-0.1
		c0-0.4-0.1-0.7-0.2-0.9c-0.1-0.3-0.3-0.5-0.5-0.6c-0.2-0.1-0.4-0.2-0.7-0.3c-0.2-0.1-0.5-0.1-0.8-0.1h-1.6v4h1.6
		c0.3,0,0.5,0,0.8-0.1c0.2-0.1,0.5-0.2,0.7-0.3c0.2-0.1,0.4-0.3,0.5-0.6C25.9,17.1,26,16.8,26,16.5z"/>
</g>
<g id="XMLID_47_">
	<path id="XMLID_13_" class="st1" d="M20,2.5c9.4,0,17,7.6,17,17s-7.6,17-17,17s-17-7.6-17-17S10.6,2.5,20,2.5 M20,1.5
		c-9.9,0-18,8.1-18,18s8.1,18,18,18s18-8.1,18-18S29.9,1.5,20,1.5L20,1.5z"/>
</g>
</svg>
