<?xml version="1.0" encoding="utf-8"?>
<!-- Generator: Adobe Illustrator 19.0.0, SVG Export Plug-In . SVG Version: 6.00 Build 0)  -->
<svg version="1.1" id="Слой_1" xmlns="http://www.w3.org/2000/svg" xmlns:xlink="http://www.w3.org/1999/xlink" x="0px" y="0px"
	 viewBox="0 0 40 40" style="enable-background:new 0 0 40 40;" xml:space="preserve">
<style type="text/css">
	.st0{fill:none;stroke:#004FE1;stroke-miterlimit:10;}
	.st1{fill:none;stroke:#004FE1;stroke-width:2;stroke-linecap:round;stroke-miterlimit:10;}
	.st2{fill:#004FE1;}
	.st3{fill:#E2E2E2;}
</style>
<g id="XMLID_104_">
	<path id="XMLID_30_" class="st0" d="M17.7,25.7c0.9,0.3,1.9,0.4,2.9,0.4c4.9,0,8.9-3.3,8.9-7.4s-4-7.4-8.9-7.4s-8.9,3.3-8.9,7.4
		c0,2.1,1,4,2.7,5.3c0,0-0.6,2.1-2,3.1c0,0,0,0,0,0C13,27.2,16.3,27.2,17.7,25.7z"/>
	<line id="XMLID_31_" class="st1" x1="20.6" y1="21.9" x2="20.6" y2="18.1"/>
	<circle id="XMLID_19_" class="st2" cx="20.6" cy="15.5" r="0.9"/>
</g>
<g id="XMLID_103_">
	<path id="XMLID_13_" class="st3" d="M20,3c9.4,0,17,7.6,17,17s-7.6,17-17,17S3,29.4,3,20S10.6,3,20,3 M20,2C10.1,2,2,10.1,2,20
		s8.1,18,18,18s18-8.1,18-18S29.9,2,20,2L20,2z"/>
</g>
</svg>
