<?xml version="1.0" encoding="utf-8"?>
<!-- Generator: Adobe Illustrator 19.0.0, SVG Export Plug-In . SVG Version: 6.00 Build 0)  -->
<svg version="1.1" id="Слой_1" xmlns="http://www.w3.org/2000/svg" xmlns:xlink="http://www.w3.org/1999/xlink" x="0px" y="0px"
	 viewBox="0 0 40 40" style="enable-background:new 0 0 40 40;" xml:space="preserve">
<style type="text/css">
	.st0{fill:none;stroke:#004FE1;stroke-linecap:round;stroke-miterlimit:10;}
	.st1{fill:#E2E2E2;}
</style>
<g id="XMLID_66_">
	<polyline id="XMLID_65_" class="st0" points="18.1,13.3 18.4,11.5 21.5,11.5 21.9,13.3 	"/>
	<polyline id="XMLID_72_" class="st0" points="13.9,16.6 12.8,15.1 15,12.9 16.6,13.9 	"/>
	<polyline id="XMLID_76_" class="st0" points="13.3,21.9 11.5,21.6 11.5,18.5 13.3,18.1 	"/>
	<polyline id="XMLID_77_" class="st0" points="16.6,26.1 15.1,27.2 12.9,25 13.9,23.4 	"/>
	<polyline id="XMLID_78_" class="st0" points="21.9,26.7 21.6,28.5 18.5,28.5 18.1,26.7 	"/>
	<polyline id="XMLID_79_" class="st0" points="26.1,23.4 27.2,24.9 25,27.1 23.4,26.1 	"/>
	<polyline id="XMLID_80_" class="st0" points="26.7,18.1 28.5,18.4 28.5,21.5 26.7,21.9 	"/>
	<polyline id="XMLID_81_" class="st0" points="23.4,13.9 24.9,12.8 27.1,15 26.1,16.6 	"/>
	<path id="XMLID_89_" class="st0" d="M16.7,13.9c0.4-0.2,0.9-0.4,1.4-0.6"/>
	<path id="XMLID_88_" class="st0" d="M13.3,18.1c0.2-0.5,0.3-1,0.6-1.5"/>
	<path id="XMLID_68_" class="st0" d="M13.9,23.4c-0.2-0.4-0.4-1-0.6-1.4"/>
	<path id="XMLID_86_" class="st0" d="M18.1,26.7c-0.5-0.1-1-0.3-1.4-0.6"/>
	<path id="XMLID_85_" class="st0" d="M23.3,26.1c-0.4,0.2-0.9,0.4-1.4,0.6"/>
	<path id="XMLID_84_" class="st0" d="M26.7,21.9c-0.1,0.5-0.3,1-0.6,1.5"/>
	<path id="XMLID_83_" class="st0" d="M26.1,16.6c0.3,0.4,0.5,0.9,0.6,1.4"/>
	<path id="XMLID_82_" class="st0" d="M21.9,13.3c0.5,0.1,1,0.3,1.4,0.6"/>
	<circle id="XMLID_33_" class="st0" cx="19.9" cy="20" r="2.7"/>
</g>
<g id="XMLID_106_">
	<path id="XMLID_13_" class="st1" d="M20,3c9.4,0,17,7.6,17,17s-7.6,17-17,17S3,29.4,3,20S10.6,3,20,3 M20,2C10.1,2,2,10.1,2,20
		s8.1,18,18,18s18-8.1,18-18S29.9,2,20,2L20,2z"/>
</g>
</svg>
