<?xml version="1.0" encoding="utf-8"?>
<!-- Generator: Adobe Illustrator 19.0.0, SVG Export Plug-In . SVG Version: 6.00 Build 0)  -->
<svg version="1.1" id="Слой_1" xmlns="http://www.w3.org/2000/svg" xmlns:xlink="http://www.w3.org/1999/xlink" x="0px" y="0px"
	 viewBox="0 0 27.8 27.8" style="enable-background:new 0 0 27.8 27.8;" xml:space="preserve">
<style type="text/css">
	.st0{fill:#FE4543;}
</style>
<g id="XMLID_98_">
	<path id="XMLID_113_" class="st0" d="M17,8.9V5.3c0-0.2-0.1-0.3-0.2-0.4c-0.1-0.1-0.3-0.1-0.4,0L9.8,8.2H4.8
		c-0.6,0-1.1,0.5-1.1,1.1v4.9c0,0.6,0.5,1.1,1.1,1.1h0.6v5.7c0,0.6,0.5,1.1,1.1,1.1h1c0.6,0,1.1-0.5,1.1-1.1v-5.7h1.3l6.5,3.3
		c0.1,0,0.1,0,0.2,0c0.1,0,0.2,0,0.2-0.1c0.1-0.1,0.2-0.2,0.2-0.4v-3.6c1.4-0.2,2.4-1.4,2.4-2.8C19.4,10.3,18.3,9.1,17,8.9z
		 M7.6,20.9c0,0.1-0.1,0.2-0.2,0.2h-1c-0.1,0-0.2-0.1-0.2-0.2v-5.7h1.3V20.9z M9.5,14.4H4.8c-0.1,0-0.2-0.1-0.2-0.2V9.3
		c0-0.1,0.1-0.2,0.2-0.2h4.7V14.4z M16.1,17.4l-5.7-2.9V8.9l5.7-2.9V17.4z M17,13.6V9.8c0.9,0.2,1.5,1,1.5,1.9
		C18.4,12.6,17.8,13.4,17,13.6z"/>
	<path id="XMLID_135_" class="st0" d="M21.5,9.6c-0.2-0.2-0.5-0.2-0.6,0c-0.2,0.2-0.2,0.5,0,0.6c0.4,0.4,0.6,0.9,0.6,1.4
		c0,0.5-0.2,1.1-0.6,1.4c-0.2,0.2-0.2,0.5,0,0.6c0.1,0.1,0.2,0.1,0.3,0.1c0.1,0,0.2,0,0.3-0.1c0.5-0.5,0.8-1.3,0.8-2.1
		C22.3,10.9,22,10.2,21.5,9.6z"/>
	<path id="XMLID_137_" class="st0" d="M22.8,8.6c-0.2-0.2-0.5-0.2-0.6,0C22,8.7,22,9,22.2,9.2c0.6,0.6,1,1.5,1,2.5
		c0,0.9-0.4,1.9-1,2.5c-0.2,0.2-0.2,0.5,0,0.6c0.1,0.1,0.2,0.1,0.3,0.1c0.1,0,0.2,0,0.3-0.1c0.8-0.8,1.2-1.9,1.2-3.1
		C24.1,10.5,23.6,9.4,22.8,8.6z"/>
</g>
</svg>
