<?xml version="1.0" encoding="utf-8"?>
<!-- Generator: Adobe Illustrator 19.0.0, SVG Export Plug-In . SVG Version: 6.00 Build 0)  -->
<svg version="1.1" id="Слой_1" xmlns="http://www.w3.org/2000/svg" xmlns:xlink="http://www.w3.org/1999/xlink" x="0px" y="0px"
	 viewBox="0 0 27.8 27.8" style="enable-background:new 0 0 27.8 27.8;" xml:space="preserve">
<style type="text/css">
	.st0{fill:#FE4543;}
</style>
<g id="XMLID_99_">
	<path id="XMLID_100_" class="st0" d="M20.9,8.7H17V7c0-0.3-0.2-0.5-0.5-0.5h-5.4c-0.3,0-0.5,0.2-0.5,0.5v1.7H6.7
		c-0.8,0-1.4,0.6-1.4,1.4v9c0,0.8,0.6,1.4,1.4,1.4h14.2c0.8,0,1.4-0.6,1.4-1.4v-9C22.3,9.4,21.7,8.7,20.9,8.7L20.9,8.7z M11.6,7.5
		H16v1.2h-4.3V7.5z M6.7,9.7h14.2c0.2,0,0.4,0.2,0.4,0.4v2.5c-1,1-3.4,1.7-6.2,1.9L15,13.9c0-0.4-0.3-0.7-0.7-0.7h-1
		c-0.4,0-0.7,0.3-0.7,0.7l-0.1,0.7c-2.8-0.2-5.2-0.9-6.2-1.9v-2.5C6.3,9.9,6.4,9.7,6.7,9.7L6.7,9.7z M20.9,19.6H6.7
		c-0.2,0-0.4-0.2-0.4-0.4V14c1.4,0.9,3.6,1.4,6.1,1.6l-0.1,0.8c0,0.4,0.3,0.7,0.7,0.7h1.6c0.4,0,0.7-0.3,0.7-0.7l-0.1-0.8
		c2.5-0.2,4.7-0.7,6.1-1.6v5.2C21.3,19.4,21.1,19.6,20.9,19.6L20.9,19.6z M20.9,19.6"/>
</g>
</svg>
