<?xml version="1.0" encoding="utf-8"?>
<!-- Generator: Adobe Illustrator 19.0.0, SVG Export Plug-In . SVG Version: 6.00 Build 0)  -->
<svg version="1.1" id="Слой_1" xmlns="http://www.w3.org/2000/svg" xmlns:xlink="http://www.w3.org/1999/xlink" x="0px" y="0px"
	 viewBox="0 0 27.8 27.8" style="enable-background:new 0 0 27.8 27.8;" xml:space="preserve">
<style type="text/css">
	.st0{fill:#FE4543;}
	.st1{fill:none;stroke:#FE4543;stroke-miterlimit:10;}
</style>
<g id="XMLID_121_">
	<g id="XMLID_87_">
		<g id="XMLID_31_">
			<path id="XMLID_32_" class="st0" d="M20.4,10.4c0.3,0,0.5,0.2,0.5,0.5V18c0,0.3-0.2,0.5-0.5,0.5h-12C8.2,18.4,8,18.2,8,18v-7.1
				c0-0.3,0.2-0.5,0.5-0.5H20.4 M20.4,9.4h-12C7.7,9.4,7,10,7,10.8V18c0,0.8,0.7,1.5,1.5,1.5h12c0.8,0,1.5-0.7,1.5-1.5v-7.1
				C21.9,10,21.2,9.4,20.4,9.4L20.4,9.4z"/>
		</g>
	</g>
	<polyline id="XMLID_75_" class="st1" points="7.6,10.1 14.4,15.8 21.2,10.1 	"/>
</g>
</svg>
