<?xml version="1.0" encoding="utf-8"?>
<!-- Generator: Adobe Illustrator 19.0.0, SVG Export Plug-In . SVG Version: 6.00 Build 0)  -->
<svg version="1.1" id="Слой_1" xmlns="http://www.w3.org/2000/svg" xmlns:xlink="http://www.w3.org/1999/xlink" x="0px" y="0px"
	 viewBox="0 0 27.8 27.8" style="enable-background:new 0 0 27.8 27.8;" xml:space="preserve">
<style type="text/css">
	.st0{fill:#FE4543;}
</style>
<g id="XMLID_167_">
	<path id="XMLID_175_" class="st0" d="M20.3,13.5c0-0.3-0.2-0.5-0.5-0.5c-0.3,0-0.5,0.2-0.5,0.5c0,3-2.4,5.4-5.4,5.4
		c-3,0-5.4-2.4-5.4-5.4c0-0.3-0.2-0.5-0.5-0.5s-0.5,0.2-0.5,0.5c0,3.4,2.6,6.2,5.9,6.4v1.9h-2.4c-0.3,0-0.5,0.2-0.5,0.5
		c0,0.3,0.2,0.5,0.5,0.5h5.9c0.3,0,0.5-0.2,0.5-0.5c0-0.3-0.2-0.5-0.5-0.5h-2.4v-1.9C17.7,19.6,20.3,16.9,20.3,13.5z"/>
	<path id="XMLID_180_" class="st0" d="M13.9,17c1.9,0,3.5-1.6,3.5-3.5V8.3c0-1.9-1.6-3.5-3.5-3.5c-1.9,0-3.5,1.6-3.5,3.5v5.1
		C10.4,15.4,11.9,17,13.9,17z M11.5,8.3c0-1.3,1.1-2.4,2.4-2.4c1.3,0,2.4,1.1,2.4,2.4v5.1c0,1.3-1.1,2.4-2.4,2.4
		c-1.3,0-2.4-1.1-2.4-2.4V8.3z"/>
</g>
</svg>
