<?xml version="1.0" encoding="utf-8"?>
<!-- Generator: Adobe Illustrator 19.0.0, SVG Export Plug-In . SVG Version: 6.00 Build 0)  -->
<svg version="1.1" id="Слой_1" xmlns="http://www.w3.org/2000/svg" xmlns:xlink="http://www.w3.org/1999/xlink" x="0px" y="0px"
	 viewBox="0 0 27.8 27.8" style="enable-background:new 0 0 27.8 27.8;" xml:space="preserve">
<style type="text/css">
	.st0{fill:#FE4543;}
</style>
<g id="XMLID_159_">
	<path id="XMLID_166_" class="st0" d="M19.3,9.7V8.6h-1.1c-0.3-2.1-2.1-3.8-4.3-3.8s-4,1.6-4.3,3.8H8.5v1.1h1.1v12.5H8.5v1.1h10.8
		v-1.1h-1.1V9.7H19.3z M13.9,5.9c1.6,0,2.9,1.2,3.2,2.7h-6.4C10.9,7.1,12.3,5.9,13.9,5.9z M17.1,22.2h-6.5v-1.1h6.5V22.2z M17.1,20
		h-6.5v-8.2h6.5V20z M17.1,10.8h-6.5V9.7h6.5V10.8z"/>
	<path id="XMLID_163_" class="st0" d="M16,12.9h-4.3v5.9H16V12.9z M15,17.8h-2.2V14H15V17.8z"/>
</g>
</svg>
