<?xml version="1.0" encoding="utf-8"?>
<!-- Generator: Adobe Illustrator 19.0.0, SVG Export Plug-In . SVG Version: 6.00 Build 0)  -->
<svg version="1.1" id="Слой_1" xmlns="http://www.w3.org/2000/svg" xmlns:xlink="http://www.w3.org/1999/xlink" x="0px" y="0px"
	 viewBox="0 0 27.8 27.8" style="enable-background:new 0 0 27.8 27.8;" xml:space="preserve">
<style type="text/css">
	.st0{fill:#FE4543;}
</style>
<g id="XMLID_186_">
	<path id="XMLID_198_" class="st0" d="M19.5,9.2l-1.5,0l-1.4-2.1c-0.1-0.1-0.2-0.2-0.4-0.2h-3.8c-0.2,0-0.3,0.1-0.4,0.2l-1.5,2.1
		l-1.4,0c-1,0-1.9,0.9-1.9,1.9v6.2c0,1,0.9,1.9,1.9,1.9h10.4c1,0,1.9-0.9,1.9-1.9v-6.2C21.4,10.1,20.5,9.2,19.5,9.2L19.5,9.2z
		 M20.4,17.3c0,0.5-0.4,1-1,1H9.1c-0.5,0-1-0.5-1-1v-6.2c0-0.5,0.4-1,1-1h1.6c0.2,0,0.3-0.1,0.4-0.2l1.5-2.1h3.3l1.4,2.1
		c0.1,0.1,0.2,0.2,0.4,0.2l1.7,0c0.5,0,1,0.4,1,1L20.4,17.3L20.4,17.3L20.4,17.3z M20.4,17.3"/>
	<path id="XMLID_194_" class="st0" d="M14.3,10.4c-1.8,0-3.3,1.5-3.3,3.3s1.5,3.3,3.3,3.3c1.8,0,3.3-1.5,3.3-3.3
		S16.1,10.4,14.3,10.4L14.3,10.4z M14.3,16.1c-1.3,0-2.4-1.1-2.4-2.4c0-1.3,1.1-2.4,2.4-2.4c1.3,0,2.4,1.1,2.4,2.4
		C16.7,15,15.6,16.1,14.3,16.1L14.3,16.1z M14.3,16.1"/>
	<path id="XMLID_191_" class="st0" d="M18.9,11.7c0,0.1-0.1,0.2-0.2,0.2s-0.2-0.1-0.2-0.2c0-0.1,0.1-0.2,0.2-0.2
		S18.9,11.6,18.9,11.7L18.9,11.7z M18.9,11.7"/>
	<path id="XMLID_187_" class="st0" d="M18.8,11.1c-0.4,0-0.6,0.3-0.6,0.6c0,0.4,0.3,0.6,0.6,0.6c0.4,0,0.6-0.3,0.6-0.6
		C19.4,11.4,19.1,11.1,18.8,11.1L18.8,11.1z M18.8,12c-0.2,0-0.3-0.1-0.3-0.3c0-0.2,0.1-0.3,0.3-0.3c0.2,0,0.3,0.1,0.3,0.3
		C19,11.9,18.9,12,18.8,12L18.8,12z M18.8,12"/>
</g>
</svg>
