<?xml version="1.0" encoding="utf-8"?>
<!-- Generator: Adobe Illustrator 19.0.0, SVG Export Plug-In . SVG Version: 6.00 Build 0)  -->
<svg version="1.1" id="Слой_1" xmlns="http://www.w3.org/2000/svg" xmlns:xlink="http://www.w3.org/1999/xlink" x="0px" y="0px"
	 viewBox="0 0 27.8 27.8" style="enable-background:new 0 0 27.8 27.8;" xml:space="preserve">
<style type="text/css">
	.st0{fill:#FE4543;}
</style>
<path id="XMLID_210_" class="st0" d="M20.7,9.3h-3.1c0.2-0.2,0.4-0.3,0.5-0.4C19,8,19,6.7,18.2,5.9c-0.8-0.8-2.1-0.8-2.9,0
	c-0.4,0.4-1.6,2.2-1.4,3.3h-0.1c0.2-1.2-1-2.9-1.4-3.3c-0.8-0.8-2.1-0.8-2.9,0C8.8,6.7,8.8,8,9.6,8.8C9.7,9,9.9,9.1,10.1,9.3H7
	c-0.5,0-1,0.4-1,1v2.5c0,0.3,0.2,0.5,0.5,0.5H7v5.9c0,0.5,0.4,1,1,1h11.8c0.5,0,1-0.4,1-1v-5.9h0.5c0.3,0,0.5-0.2,0.5-0.5v-2.5
	C21.7,9.7,21.3,9.3,20.7,9.3z M14.9,9.2C14.7,9,15.3,7.3,16,6.6c0.4-0.4,1.1-0.4,1.5,0c0.4,0.4,0.4,1.1,0,1.5
	c-0.4,0.4-1.7,1.1-2.4,1.1C15,9.3,14.9,9.2,14.9,9.2z M10.3,8.1c-0.4-0.4-0.4-1.1,0-1.5c0.2-0.2,0.5-0.3,0.7-0.3
	c0.3,0,0.5,0.1,0.7,0.3c0.7,0.7,1.3,2.4,1.1,2.6c0,0,0,0-0.2,0C12,9.3,10.7,8.6,10.3,8.1z M7,10.2h5.7h0.7v2H7V10.2z M8,13.2h5.4
	v5.9H8V13.2z M19.8,19.1h-5.4v-5.9h5.4V19.1z M20.7,12.2h-6.4v-2h0.7h5.7V12.2z"/>
</svg>
